<?xml version="1.0" encoding="UTF-8" standalone="no"?>
<svg
   xmlns:dc="http://purl.org/dc/elements/1.1/"
   xmlns:cc="http://creativecommons.org/ns#"
   xmlns:rdf="http://www.w3.org/1999/02/22-rdf-syntax-ns#"
   xmlns:svg="http://www.w3.org/2000/svg"
   xmlns="http://www.w3.org/2000/svg"
   viewBox="0 0 755.89331 134.85333"
   height="134.85333"
   width="755.89331"
   xml:space="preserve"
   id="svg2"
   version="1.1"><metadata
     id="metadata8"><rdf:RDF><cc:Work
         rdf:about=""><dc:format>image/svg+xml</dc:format><dc:type
           rdf:resource="http://purl.org/dc/dcmitype/StillImage" /></cc:Work></rdf:RDF></metadata><defs
     id="defs6" /><g
     transform="matrix(1.3333333,0,0,-1.3333333,0,134.85333)"
     id="g10"><g
       transform="scale(0.1)"
       id="g12"><path
         id="path14"
         style="fill:#2b353e;fill-opacity:1;fill-rule:nonzero;stroke:none"
         d="M 2435.22,310.457 V 94.6563 h -235.4 V 310.457 Z m 79.43,47.356 -56.11,38.992 c -1.57,1.328 -9.88,7.773 -25.41,7.773 h -227.97 c -16.48,0 -26.21,-8.574 -26.07,-8.574 h 0.1 l -62.2,-43.113 c -1.16,-1.114 -12.06,-11.094 -12.06,-26.34 V 81.9805 c 0,-23.4375 13.22,-32.7344 14.71,-33.7305 l 57.16,-37.0508 c 0.98,-1.0898 11.67,-10.660137 30.17,-10.660137 h 223.63 c 13.2,0 25.54,8.140627 26.73,9.019527 l 61.33,40.78121 c 1.86,1.2696 11.45,8.2813 11.45,24.7461 V 327.215 c 0,17.656 -13.15,28.848 -15.46,30.598" /><path
         id="path16"
         style="fill:#2b353e;fill-opacity:1;fill-rule:nonzero;stroke:none"
         d="M 119.781,161.082 H 355.313 V 94.4609 H 119.781 Z m 235.532,83.066 H 119.781 v 66.504 h 235.532 z m 79.289,113.782 -56.161,38.875 c -1.449,1.328 -9.664,7.773 -25.394,7.773 H 24.9219 V 0.539063 H 350.602 c 13.089,0 25.445,8.140627 26.761,9.019527 L 438.57,50.2422 c 1.891,1.2305 11.551,8.2422 11.551,24.7461 v 85.4497 l -59.086,39.531 59.086,41.074 v 86.27 c 0,17.687 -13.297,28.828 -15.519,30.617" /><path
         id="path18"
         style="fill:#2b353e;fill-opacity:1;fill-rule:nonzero;stroke:none"
         d="m 5558.16,211.473 c -0.52,1.172 -0.62,4.394 0,5.84 l 86.39,187.265 H 5537.4 l -67.54,-146.015 h -157.42 v 129.785 c 0,12.433 -10.14,16.23 -22.28,16.23 H 5217.7 V 0.171875 h 72.46 c 12.14,0 22.28,-2.273435 22.28,10.007825 V 163.738 h 155.92 c 0.82,-0.136 2.19,-0.937 2.68,-1.504 L 5554.73,0.539063 h 114.51 L 5558.16,211.473" /><path
         id="path20"
         style="fill:#2b353e;fill-opacity:1;fill-rule:nonzero;stroke:none"
         d="m 644.707,146.258 236.598,248.027 c 6.035,6.32 17.023,10.871 25.769,10.871 h 74.094 V 0.0117188 H 884.402 V 252.195 L 647.758,10.8086 C 642.234,5.19922 631.086,1.80859 624.883,0.320313 L 547.91,0.0117188 V 404.773 h 96.797 V 146.258" /><path
         id="path22"
         style="fill:#2b353e;fill-opacity:1;fill-rule:nonzero;stroke:none"
         d="m 4776.21,146.258 236.68,248.027 c 6.31,6.32 17.05,10.871 25.72,10.871 h 74.16 V 0.0117188 H 5015.9 V 252.195 L 4779.51,10.8086 C 4773.89,5.19922 4762.75,1.80859 4756.64,0.320313 L 4679.53,0.0117188 V 404.773 h 96.68 V 146.258" /><path
         id="path24"
         style="fill:#2b353e;fill-opacity:1;fill-rule:nonzero;stroke:none"
         d="m 2590.32,332.402 c 0,-12.277 10.08,-22.277 22.5,-22.277 h 139.02 V 0.539063 h 94.82 V 310.125 h 139.04 c 12.44,0 22.43,10 22.43,22.277 v 71.961 h -417.81 v -71.961" /><path
         id="path26"
         style="fill:#2b353e;fill-opacity:1;fill-rule:nonzero;stroke:none"
         d="m 3090.14,394.48 v -37.031 c 0,0 0,-16.785 0,-25.488 V 73.9336 c 0,-8.6719 4.45,-19.375 10.56,-25.4492 l 36.72,-37.125 c 6.29,-6.18752 16.7,-10.570337 25.47,-10.570337 h 344.98 V 73.0547 c 0,12.4609 -10.12,22.5195 -22.42,22.5195 h -300.57 v 67.4418 h 310.16 v 86.113 h -310.16 v 61.133 h 300.57 c 12.3,0 22.42,10.078 22.42,22.578 v 72.199 H 3090.14 V 394.48" /><path
         id="path28"
         style="fill:#2b353e;fill-opacity:1;fill-rule:nonzero;stroke:none"
         d="m 4475.35,249.52 h -249.08 v 155.058 h -95.18 L 4130.7,0.789063 h 95.57 V 154.734 l 249.08,0.039 c 0,-0.332 0.06,-0.644 0,-1.093 V 0.789063 h 93.83 V 404.578 h -93.83 V 249.52" /><path
         id="path30"
         style="fill:#2b353e;fill-opacity:1;fill-rule:nonzero;stroke:none"
         d="m 1413.93,94.4609 h -227.87 v 66.6211 h 227.87 z m 71.44,310.1171 H 1091.1 V 0.539063 h 318.12 c 13.13,0 25.6,8.140627 26.8,9.019527 l 61.15,40.68361 c 1.98,1.2305 11.65,8.2422 11.65,24.7461 0,0 0,69.5707 0,88.2617 0,18.652 -14.73,33.555 -14.73,33.555 l -40.86,31.621 c 0,0 -13.48,12.793 -32.12,12.793 -21.79,0 -235.05,0 -235.05,0 v 75.351 h 299.31 v 88.008" /><path
         id="path32"
         style="fill:#2b353e;fill-opacity:1;fill-rule:nonzero;stroke:none"
         d="m 1703.49,310.652 h 221.45 V 206.121 h -221.45 z m 170.49,-187.656 c 0,0 1.11,0 34.2,0 33.15,0 44.8,12.832 44.8,12.832 l 54.59,44.277 c 1.31,0.918 12.26,9.551 12.26,28.438 v 118.77 c 0,17.687 -13.25,28.828 -15.58,30.617 l -56.06,38.925 c -1.48,1.329 -9.72,7.723 -25.51,7.723 H 1608.57 V 0.539063 h 94.92 V 122.996 h 65.73 104.76" /><path
         id="path34"
         style="fill:#2b353e;fill-opacity:1;fill-rule:nonzero;stroke:none"
         d="m 3966.11,203.992 c -0.52,1.192 -0.62,4.414 0,5.86 l 81.82,195.117 h -107.29 l -62.93,-153.946 h -108.84 l -62.83,153.946 h -107.29 l 81.62,-195.117 c 0.72,-1.446 0.63,-4.668 0.04,-5.86 L 3589.84,0.808594 h 105.49 L 3767.71,165.77 c 0.28,0.507 1.74,1.406 2.43,1.406 h 106.17 c 0.88,0 2.19,-0.899 2.56,-1.406 L 3951.48,0.808594 h 103.87 L 3966.11,203.992" /><path
         id="path36"
         style="fill:#33baab;fill-opacity:1;fill-rule:nonzero;stroke:none"
         d="m 797.906,834.566 c 14.336,-13.843 14.336,-36.613 0,-50.48 L 683.902,672.996 c -14.105,-13.875 -37.355,-13.875 -51.718,0 l -113.883,111.09 c -14.168,13.867 -14.168,36.637 0,50.48 l 113.883,111.157 c 14.363,13.867 37.613,13.867 51.718,0 L 797.906,834.566" /><path
         id="path38"
         style="fill:#33baab;fill-opacity:1;fill-rule:nonzero;stroke:none"
         d="m 149.848,607.168 c -23.496,0 -52.4105,16.336 -64.2582,36.211 L 8.86328,773.27 c -11.81641,19.753 -11.81641,52.355 0,72.203 L 85.5898,975.316 c 11.8477,19.899 40.7622,36.114 64.2582,36.114 h 153.886 c 23.473,0 52.438,-16.215 64.235,-36.114 l 76.992,-129.843 c 11.75,-19.848 11.75,-52.45 0,-72.203 L 367.969,643.379 C 356.172,623.504 327.207,607.168 303.734,607.168 H 149.848" /><path
         id="path40"
         style="fill:#33baab;fill-opacity:1;fill-rule:nonzero;stroke:none"
         d="m 1021.14,809.324 c 0,-43.32 -36.183,-78.406 -80.46,-78.406 -44.504,0 -80.438,35.086 -80.438,78.406 0,43.379 35.934,78.473 80.438,78.473 44.277,0 80.46,-35.094 80.46,-78.473" /></g></g></svg>